<svg width="18" height="19" viewBox="0 0 18 19" fill="none" xmlns="http://www.w3.org/2000/svg">
<path d="M16.6 18.125L10.3 12.0875C9.8 12.4708 9.225 12.7743 8.575 12.9979C7.925 13.2215 7.23333 13.3333 6.5 13.3333C4.68333 13.3333 3.14583 12.7304 1.8875 11.5245C0.629167 10.3186 0 8.84514 0 7.10417C0 5.36319 0.629167 3.88976 1.8875 2.68385C3.14583 1.47795 4.68333 0.875 6.5 0.875C8.31667 0.875 9.85417 1.47795 11.1125 2.68385C12.3708 3.88976 13 5.36319 13 7.10417C13 7.80694 12.8833 8.46979 12.65 9.09271C12.4167 9.71562 12.1 10.2667 11.7 10.7458L18 16.7833L16.6 18.125ZM6.5 11.4167C7.75 11.4167 8.8125 10.9974 9.6875 10.1589C10.5625 9.32031 11 8.30208 11 7.10417C11 5.90625 10.5625 4.88802 9.6875 4.04948C8.8125 3.21094 7.75 2.79167 6.5 2.79167C5.25 2.79167 4.1875 3.21094 3.3125 4.04948C2.4375 4.88802 2 5.90625 2 7.10417C2 8.30208 2.4375 9.32031 3.3125 10.1589C4.1875 10.9974 5.25 11.4167 6.5 11.4167Z" fill="#1D1B20"/>
</svg>