<svg width="67" height="49" viewBox="0 0 67 49" fill="none" xmlns="http://www.w3.org/2000/svg">
<path d="M55.3972 22.3307H11.3553C9.92009 22.3307 8.75659 23.1806 8.75659 24.2291V24.4289C8.75659 25.4773 9.92009 26.3272 11.3553 26.3272H55.3972C56.8324 26.3272 57.9959 25.4773 57.9959 24.4289V24.2291C57.9959 23.1806 56.8324 22.3307 55.3972 22.3307Z" fill="#5C3620"/>
<path d="M55.3972 32.322H11.3553C9.92009 32.322 8.75659 33.1719 8.75659 34.2203V34.4201C8.75659 35.4685 9.92009 36.3185 11.3553 36.3185H55.3972C56.8324 36.3185 57.9959 35.4685 57.9959 34.4201V34.2203C57.9959 33.1719 56.8324 32.322 55.3972 32.322Z" fill="#5C3620"/>
<path d="M55.3972 12.3395H11.3553C9.92009 12.3395 8.75659 13.1894 8.75659 14.2378V14.4376C8.75659 15.4861 9.92009 16.336 11.3553 16.336H55.3972C56.8324 16.336 57.9959 15.4861 57.9959 14.4376V14.2378C57.9959 13.1894 56.8324 12.3395 55.3972 12.3395Z" fill="#5C3620"/>
</svg>
